<mxfile host="Electron" agent="Mozilla/5.0 (Windows NT 10.0; Win64; x64) AppleWebKit/537.36 (KHTML, like Gecko) draw.io/26.0.15 Chrome/132.0.6834.196 Electron/34.2.0 Safari/537.36" version="26.0.15">
  <diagram name="Page-1" id="57BZaK1FgyLjIBw5k1xw">
    <mxGraphModel dx="2074" dy="1196" grid="1" gridSize="10" guides="1" tooltips="1" connect="1" arrows="1" fold="1" page="1" pageScale="1" pageWidth="850" pageHeight="1100" background="#ffffff" math="0" shadow="0">
      <root>
        <mxCell id="0" />
        <mxCell id="1" parent="0" />
        <mxCell id="F_8em20IMyetXkLZz1Rs-2" value="" style="rounded=0;whiteSpace=wrap;html=1;rotation=90;fillColor=none;dashed=1;" parent="1" vertex="1">
          <mxGeometry x="-254.37" y="345.63" width="717.5" height="191.25" as="geometry" />
        </mxCell>
        <mxCell id="F_8em20IMyetXkLZz1Rs-3" value="" style="rounded=0;whiteSpace=wrap;html=1;rotation=90;fillColor=none;dashed=1;" parent="1" vertex="1">
          <mxGeometry x="288.45" y="34.07" width="720" height="811.89" as="geometry" />
        </mxCell>
        <mxCell id="F_8em20IMyetXkLZz1Rs-5" value="" style="rounded=0;whiteSpace=wrap;html=1;rotation=90;fillColor=none;dashed=1;strokeColor=light-dark(#7d7d7d, #3e3e3e);" parent="1" vertex="1">
          <mxGeometry x="860" y="345.63" width="717.5" height="188.75" as="geometry" />
        </mxCell>
        <mxCell id="F_8em20IMyetXkLZz1Rs-6" value="&lt;font style=&quot;font-size: 24px;&quot;&gt;Sources&lt;/font&gt;" style="rounded=1;whiteSpace=wrap;html=1;fillColor=default;strokeColor=none;" parent="1" vertex="1">
          <mxGeometry x="44.38" y="60" width="120" height="40" as="geometry" />
        </mxCell>
        <mxCell id="F_8em20IMyetXkLZz1Rs-7" value="&lt;font style=&quot;font-size: 24px;&quot;&gt;Consumer&lt;/font&gt;" style="rounded=1;whiteSpace=wrap;html=1;fillColor=default;strokeColor=none;" parent="1" vertex="1">
          <mxGeometry x="1158.75" y="60" width="120" height="40" as="geometry" />
        </mxCell>
        <mxCell id="F_8em20IMyetXkLZz1Rs-8" value="&lt;font style=&quot;font-size: 24px;&quot;&gt;Data Warehouse&lt;/font&gt;" style="rounded=1;whiteSpace=wrap;html=1;fillColor=default;strokeColor=none;" parent="1" vertex="1">
          <mxGeometry x="590" y="60" width="120" height="40" as="geometry" />
        </mxCell>
        <mxCell id="F_8em20IMyetXkLZz1Rs-9" value="&lt;font style=&quot;font-size: 16px;&quot;&gt;Bronze Layer&lt;/font&gt;" style="rounded=0;whiteSpace=wrap;html=1;fillColor=#FFCE9F;strokeColor=#b85450;fontStyle=1;fontSize=15;gradientColor=none;" parent="1" vertex="1">
          <mxGeometry x="270" y="120" width="190" height="30" as="geometry" />
        </mxCell>
        <mxCell id="F_8em20IMyetXkLZz1Rs-10" value="" style="rounded=0;whiteSpace=wrap;html=1;fillColor=none;strokeColor=light-dark(#FF9933,#EDEDED);" parent="1" vertex="1">
          <mxGeometry x="270" y="170" width="190" height="590" as="geometry" />
        </mxCell>
        <mxCell id="F_8em20IMyetXkLZz1Rs-24" value="&lt;font style=&quot;font-size: 16px;&quot;&gt;Silver Layer&lt;/font&gt;" style="rounded=0;whiteSpace=wrap;html=1;fontSize=15;fontStyle=1;strokeColor=light-dark(#7d7d7d, #3e3e3e);fillColor=#CCCCCC;" parent="1" vertex="1">
          <mxGeometry x="560" y="120" width="190" height="30" as="geometry" />
        </mxCell>
        <mxCell id="F_8em20IMyetXkLZz1Rs-25" value="&lt;font style=&quot;font-size: 16px;&quot;&gt;Gold Layer&lt;/font&gt;" style="rounded=0;whiteSpace=wrap;html=1;fontSize=15;fontStyle=1;fillColor=#DE9C59;strokeColor=#AD7B4C;" parent="1" vertex="1">
          <mxGeometry x="840" y="120" width="190" height="30" as="geometry" />
        </mxCell>
        <mxCell id="F_8em20IMyetXkLZz1Rs-27" value="" style="rounded=0;whiteSpace=wrap;html=1;fillColor=none;strokeColor=#ABABAB;" parent="1" vertex="1">
          <mxGeometry x="560" y="170" width="190" height="590" as="geometry" />
        </mxCell>
        <mxCell id="F_8em20IMyetXkLZz1Rs-28" value="" style="rounded=0;whiteSpace=wrap;html=1;fillColor=none;strokeColor=#AD7B4C;" parent="1" vertex="1">
          <mxGeometry x="840" y="170" width="190" height="590" as="geometry" />
        </mxCell>
        <mxCell id="F_8em20IMyetXkLZz1Rs-29" value="&lt;font style=&quot;font-size: 15px;&quot;&gt;&lt;b&gt;CRM&lt;/b&gt;&lt;/font&gt;" style="image;aspect=fixed;html=1;points=[];align=center;fontSize=12;image=img/lib/azure2/general/Folder_Blank.svg;" parent="1" vertex="1">
          <mxGeometry x="69.88" y="200" width="61.61" height="50" as="geometry" />
        </mxCell>
        <mxCell id="F_8em20IMyetXkLZz1Rs-30" value="" style="verticalLabelPosition=bottom;html=1;verticalAlign=top;align=center;strokeColor=none;fillColor=#00BEF2;shape=mxgraph.azure.cloud_services_configuration_file;pointerEvents=1;" parent="1" vertex="1">
          <mxGeometry x="110" y="230" width="30" height="30" as="geometry" />
        </mxCell>
        <mxCell id="F_8em20IMyetXkLZz1Rs-34" value="&lt;font style=&quot;font-size: 15px;&quot;&gt;&lt;b&gt;ERP&lt;/b&gt;&lt;/font&gt;" style="image;aspect=fixed;html=1;points=[];align=center;fontSize=12;image=img/lib/azure2/general/Folder_Blank.svg;" parent="1" vertex="1">
          <mxGeometry x="69.88" y="330" width="61.61" height="50" as="geometry" />
        </mxCell>
        <mxCell id="F_8em20IMyetXkLZz1Rs-35" value="" style="verticalLabelPosition=bottom;html=1;verticalAlign=top;align=center;strokeColor=none;fillColor=#00BEF2;shape=mxgraph.azure.cloud_services_configuration_file;pointerEvents=1;" parent="1" vertex="1">
          <mxGeometry x="110" y="360" width="30" height="30" as="geometry" />
        </mxCell>
        <mxCell id="F_8em20IMyetXkLZz1Rs-49" value="" style="endArrow=none;html=1;rounded=0;exitX=0.465;exitY=0.87;exitDx=0;exitDy=0;exitPerimeter=0;entryX=0.465;entryY=0.085;entryDx=0;entryDy=0;entryPerimeter=0;strokeColor=#4D4D4D;" parent="1" edge="1">
          <mxGeometry width="50" height="50" relative="1" as="geometry">
            <mxPoint x="29.897500000000065" y="440.14250000000015" as="sourcePoint" />
            <mxPoint x="180.0287500000002" y="440.14250000000015" as="targetPoint" />
            <Array as="points">
              <mxPoint x="106.28" y="440" />
            </Array>
          </mxGeometry>
        </mxCell>
        <mxCell id="F_8em20IMyetXkLZz1Rs-52" value="&lt;font style=&quot;font-size: 14px;&quot;&gt;&lt;b&gt;Object Type: &lt;/b&gt;CSV Files&lt;b&gt;&amp;nbsp;&lt;/b&gt;&lt;/font&gt;&lt;div&gt;&lt;font style=&quot;font-size: 14px;&quot;&gt;&lt;b&gt;&lt;br&gt;&lt;/b&gt;&lt;/font&gt;&lt;div&gt;&lt;font style=&quot;font-size: 14px;&quot;&gt;&lt;b&gt;Interface: &lt;/b&gt;Files in Folder&lt;/font&gt;&lt;/div&gt;&lt;/div&gt;" style="text;html=1;align=left;verticalAlign=middle;whiteSpace=wrap;rounded=0;" parent="1" vertex="1">
          <mxGeometry x="29.95" y="400" width="190.1" height="160" as="geometry" />
        </mxCell>
        <mxCell id="F_8em20IMyetXkLZz1Rs-53" value="" style="shape=datastore;whiteSpace=wrap;html=1;strokeColor=#d79b00;fillColor=#ffe6cc;" parent="1" vertex="1">
          <mxGeometry x="335" y="320" width="60" height="60" as="geometry" />
        </mxCell>
        <mxCell id="F_8em20IMyetXkLZz1Rs-54" value="" style="shape=datastore;whiteSpace=wrap;html=1;strokeColor=#AD7B4C;fillColor=#FFB570;" parent="1" vertex="1">
          <mxGeometry x="920" y="320" width="60" height="60" as="geometry" />
        </mxCell>
        <mxCell id="F_8em20IMyetXkLZz1Rs-55" value="" style="shape=datastore;whiteSpace=wrap;html=1;fillColor=#CCCCCC;strokeColor=#4D4D4D;fontColor=#333333;" parent="1" vertex="1">
          <mxGeometry x="625" y="320" width="60" height="60" as="geometry" />
        </mxCell>
        <mxCell id="F_8em20IMyetXkLZz1Rs-56" value="" style="shape=mxgraph.arrows.arrow_right;html=1;verticalLabelPosition=bottom;verticalAlign=top;strokeWidth=2;strokeColor=#4D4D4D;fillColor=#6666FF;" parent="1" vertex="1">
          <mxGeometry x="200" y="380" width="40" height="20" as="geometry" />
        </mxCell>
        <mxCell id="F_8em20IMyetXkLZz1Rs-58" value="" style="shape=mxgraph.arrows.arrow_right;html=1;verticalLabelPosition=bottom;verticalAlign=top;strokeWidth=2;strokeColor=#4D4D4D;fillColor=#6666FF;" parent="1" vertex="1">
          <mxGeometry x="770" y="380" width="60" height="20" as="geometry" />
        </mxCell>
        <mxCell id="F_8em20IMyetXkLZz1Rs-59" value="" style="shape=mxgraph.arrows.arrow_right;html=1;verticalLabelPosition=bottom;verticalAlign=top;strokeWidth=2;strokeColor=#4D4D4D;fillColor=#6666FF;" parent="1" vertex="1">
          <mxGeometry x="480" y="380" width="60" height="20" as="geometry" />
        </mxCell>
        <mxCell id="F_8em20IMyetXkLZz1Rs-60" value="" style="shape=mxgraph.arrows.arrow_right;html=1;verticalLabelPosition=bottom;verticalAlign=top;strokeWidth=2;strokeColor=#4D4D4D;fillColor=#6666FF;" parent="1" vertex="1">
          <mxGeometry x="1060" y="380" width="60" height="20" as="geometry" />
        </mxCell>
        <mxCell id="F_8em20IMyetXkLZz1Rs-62" value="&lt;b&gt;&lt;font style=&quot;font-size: 15px;&quot;&gt;Raw Data&lt;/font&gt;&lt;/b&gt;" style="text;html=1;align=center;verticalAlign=middle;whiteSpace=wrap;rounded=0;" parent="1" vertex="1">
          <mxGeometry x="310" y="390" width="110" height="30" as="geometry" />
        </mxCell>
        <mxCell id="F_8em20IMyetXkLZz1Rs-63" value="&lt;b&gt;&lt;font style=&quot;font-size: 15px;&quot;&gt;Bussiness-Ready Data&lt;/font&gt;&lt;/b&gt;" style="text;html=1;align=center;verticalAlign=middle;whiteSpace=wrap;rounded=0;" parent="1" vertex="1">
          <mxGeometry x="860" y="390" width="170" height="30" as="geometry" />
        </mxCell>
        <mxCell id="F_8em20IMyetXkLZz1Rs-64" value="&lt;b&gt;&lt;font style=&quot;font-size: 15px;&quot;&gt;Cleaned, Standardized Data&lt;/font&gt;&lt;/b&gt;" style="text;html=1;align=center;verticalAlign=middle;whiteSpace=wrap;rounded=0;" parent="1" vertex="1">
          <mxGeometry x="590" y="390" width="140" height="30" as="geometry" />
        </mxCell>
        <mxCell id="F_8em20IMyetXkLZz1Rs-65" value="&lt;font style=&quot;font-size: 14px;&quot;&gt;&lt;b&gt;Object Type: &lt;/b&gt;Table&lt;/font&gt;" style="text;html=1;align=center;verticalAlign=middle;whiteSpace=wrap;rounded=0;" parent="1" vertex="1">
          <mxGeometry x="270" y="450" width="140" height="30" as="geometry" />
        </mxCell>
        <mxCell id="F_8em20IMyetXkLZz1Rs-66" value="&lt;b&gt;&lt;font style=&quot;font-size: 14px;&quot;&gt;Load:&lt;/font&gt;&lt;/b&gt;&lt;div&gt;&lt;ul&gt;&lt;li&gt;&lt;font style=&quot;font-size: 14px;&quot;&gt;Batch Processing&lt;/font&gt;&lt;/li&gt;&lt;li style=&quot;&quot;&gt;&lt;font style=&quot;font-size: 14px;&quot;&gt;Full Load (Trunc &amp;amp; Insert)&lt;/font&gt;&lt;/li&gt;&lt;/ul&gt;&lt;div&gt;&lt;b&gt;&lt;font style=&quot;font-size: 14px;&quot;&gt;No Transformations&amp;nbsp;&lt;/font&gt;&lt;/b&gt;&lt;/div&gt;&lt;/div&gt;&lt;div&gt;&lt;b&gt;&lt;font style=&quot;font-size: 14px;&quot;&gt;&lt;br&gt;&lt;/font&gt;&lt;/b&gt;&lt;/div&gt;&lt;div&gt;&lt;font style=&quot;font-size: 14px;&quot;&gt;&lt;b&gt;Data Model: &lt;/b&gt;None (As-is)&lt;/font&gt;&lt;/div&gt;" style="text;html=1;align=left;verticalAlign=middle;whiteSpace=wrap;rounded=0;" parent="1" vertex="1">
          <mxGeometry x="280" y="460" width="170" height="230" as="geometry" />
        </mxCell>
        <mxCell id="F_8em20IMyetXkLZz1Rs-68" value="" style="endArrow=none;html=1;rounded=0;exitX=0.465;exitY=0.87;exitDx=0;exitDy=0;exitPerimeter=0;entryX=0.465;entryY=0.085;entryDx=0;entryDy=0;entryPerimeter=0;strokeColor=#d79b00;fillColor=#ffe6cc;" parent="1" edge="1">
          <mxGeometry width="50" height="50" relative="1" as="geometry">
            <mxPoint x="290" y="439.51" as="sourcePoint" />
            <mxPoint x="440" y="439.51" as="targetPoint" />
          </mxGeometry>
        </mxCell>
        <mxCell id="F_8em20IMyetXkLZz1Rs-69" value="" style="endArrow=none;html=1;rounded=0;exitX=0.465;exitY=0.87;exitDx=0;exitDy=0;exitPerimeter=0;entryX=0.465;entryY=0.085;entryDx=0;entryDy=0;entryPerimeter=0;strokeColor=#4D4D4D;" parent="1" edge="1">
          <mxGeometry width="50" height="50" relative="1" as="geometry">
            <mxPoint x="580" y="440.76" as="sourcePoint" />
            <mxPoint x="730" y="440.76" as="targetPoint" />
          </mxGeometry>
        </mxCell>
        <mxCell id="F_8em20IMyetXkLZz1Rs-70" value="" style="endArrow=none;html=1;rounded=0;exitX=0.465;exitY=0.87;exitDx=0;exitDy=0;exitPerimeter=0;entryX=0.465;entryY=0.085;entryDx=0;entryDy=0;entryPerimeter=0;strokeColor=#4D4D4D;" parent="1" edge="1">
          <mxGeometry width="50" height="50" relative="1" as="geometry">
            <mxPoint x="870" y="439.51" as="sourcePoint" />
            <mxPoint x="1020" y="439.51" as="targetPoint" />
          </mxGeometry>
        </mxCell>
        <mxCell id="F_8em20IMyetXkLZz1Rs-71" value="&lt;b&gt;&lt;font style=&quot;font-size: 14px;&quot;&gt;Object Type: Views&lt;/font&gt;&lt;/b&gt;" style="text;html=1;align=center;verticalAlign=middle;whiteSpace=wrap;rounded=0;" parent="1" vertex="1">
          <mxGeometry x="860" y="450" width="140" height="30" as="geometry" />
        </mxCell>
        <mxCell id="F_8em20IMyetXkLZz1Rs-72" value="&lt;font style=&quot;font-size: 14px;&quot;&gt;&lt;b&gt;Object Type: &lt;/b&gt;Tables&lt;/font&gt;" style="text;html=1;align=center;verticalAlign=middle;whiteSpace=wrap;rounded=0;" parent="1" vertex="1">
          <mxGeometry x="570" y="450" width="140" height="30" as="geometry" />
        </mxCell>
        <mxCell id="F_8em20IMyetXkLZz1Rs-74" value="&lt;b&gt;&lt;font style=&quot;font-size: 14px;&quot;&gt;Load:&lt;/font&gt;&lt;/b&gt;&lt;div&gt;&lt;ul&gt;&lt;li&gt;&lt;font style=&quot;font-size: 14px;&quot;&gt;Batch Processing&lt;/font&gt;&lt;/li&gt;&lt;li style=&quot;&quot;&gt;&lt;font style=&quot;font-size: 14px;&quot;&gt;Full Load (Trunc &amp;amp; Insert)&lt;/font&gt;&lt;/li&gt;&lt;/ul&gt;&lt;div&gt;&lt;b&gt;&lt;font style=&quot;font-size: 14px;&quot;&gt;Transformations:&lt;/font&gt;&lt;/b&gt;&lt;/div&gt;&lt;div&gt;&lt;ul&gt;&lt;li&gt;&lt;font style=&quot;font-size: 14px;&quot;&gt;Data Cleansing&lt;/font&gt;&lt;/li&gt;&lt;li&gt;&lt;font style=&quot;font-size: 14px;&quot;&gt;Data Standrization&lt;/font&gt;&lt;/li&gt;&lt;li&gt;&lt;font style=&quot;font-size: 14px;&quot;&gt;Data Normalization&lt;/font&gt;&lt;/li&gt;&lt;li&gt;&lt;font style=&quot;font-size: 14px;&quot;&gt;Derived Columns&lt;/font&gt;&lt;/li&gt;&lt;li&gt;&lt;font style=&quot;font-size: 14px;&quot;&gt;Data Enrichment&lt;/font&gt;&lt;/li&gt;&lt;/ul&gt;&lt;/div&gt;&lt;/div&gt;&lt;div&gt;&lt;b&gt;&lt;font style=&quot;font-size: 14px;&quot;&gt;&lt;br&gt;&lt;/font&gt;&lt;/b&gt;&lt;/div&gt;&lt;div&gt;&lt;font style=&quot;font-size: 14px;&quot;&gt;&lt;b&gt;Data Model: &lt;/b&gt;None (As-is)&lt;/font&gt;&lt;/div&gt;" style="text;html=1;align=left;verticalAlign=middle;whiteSpace=wrap;rounded=0;" parent="1" vertex="1">
          <mxGeometry x="570" y="510" width="170" height="230" as="geometry" />
        </mxCell>
        <mxCell id="F_8em20IMyetXkLZz1Rs-75" value="&lt;b&gt;&lt;font style=&quot;font-size: 14px;&quot;&gt;No Load&lt;/font&gt;&lt;/b&gt;&lt;div&gt;&lt;span style=&quot;font-size: 14px;&quot;&gt;&lt;b&gt;&lt;br&gt;&lt;/b&gt;&lt;/span&gt;&lt;div&gt;&lt;div&gt;&lt;b&gt;&lt;font style=&quot;font-size: 14px;&quot;&gt;Transformations:&lt;/font&gt;&lt;/b&gt;&lt;/div&gt;&lt;div&gt;&lt;ul&gt;&lt;li&gt;&lt;font style=&quot;font-size: 14px;&quot;&gt;Data Integrations&lt;/font&gt;&lt;/li&gt;&lt;li&gt;&lt;font style=&quot;font-size: 14px;&quot;&gt;Aggregations&lt;/font&gt;&lt;/li&gt;&lt;li&gt;&lt;font style=&quot;font-size: 14px;&quot;&gt;Bussiness Logics&lt;/font&gt;&lt;/li&gt;&lt;/ul&gt;&lt;/div&gt;&lt;/div&gt;&lt;div&gt;&lt;b&gt;&lt;font style=&quot;font-size: 14px;&quot;&gt;&lt;br&gt;&lt;/font&gt;&lt;/b&gt;&lt;/div&gt;&lt;div&gt;&lt;font style=&quot;font-size: 14px;&quot;&gt;&lt;b&gt;Data Model:&amp;nbsp;&lt;/b&gt;&lt;/font&gt;&lt;/div&gt;&lt;/div&gt;&lt;div&gt;&lt;ul&gt;&lt;li&gt;&lt;font style=&quot;font-size: 14px;&quot;&gt;Star Schema&lt;/font&gt;&lt;/li&gt;&lt;li&gt;&lt;font style=&quot;font-size: 14px;&quot;&gt;Ftlat Table&lt;/font&gt;&lt;/li&gt;&lt;li&gt;&lt;font style=&quot;font-size: 14px;&quot;&gt;Aggregated Table&lt;/font&gt;&lt;/li&gt;&lt;/ul&gt;&lt;/div&gt;" style="text;html=1;align=left;verticalAlign=middle;whiteSpace=wrap;rounded=0;" parent="1" vertex="1">
          <mxGeometry x="860" y="500" width="170" height="230" as="geometry" />
        </mxCell>
        <mxCell id="F_8em20IMyetXkLZz1Rs-76" value="" style="image;aspect=fixed;html=1;points=[];align=center;fontSize=12;image=img/lib/azure2/analytics/Power_BI_Embedded.svg;" parent="1" vertex="1">
          <mxGeometry x="1180" y="170" width="71" height="94.67" as="geometry" />
        </mxCell>
        <mxCell id="F_8em20IMyetXkLZz1Rs-78" value="" style="sketch=0;pointerEvents=1;shadow=0;dashed=0;html=1;strokeColor=none;labelPosition=center;verticalLabelPosition=bottom;verticalAlign=top;align=center;fillColor=#505050;shape=mxgraph.mscae.oms.log_search" parent="1" vertex="1">
          <mxGeometry x="1190" y="367.81" width="69" height="74.37" as="geometry" />
        </mxCell>
        <mxCell id="F_8em20IMyetXkLZz1Rs-79" value="" style="points=[];aspect=fixed;html=1;align=center;shadow=0;dashed=0;fillColor=#FF6A00;strokeColor=none;shape=mxgraph.alibaba_cloud.machine_learning;" parent="1" vertex="1">
          <mxGeometry x="1169.83" y="550" width="109.34" height="110" as="geometry" />
        </mxCell>
        <mxCell id="F_8em20IMyetXkLZz1Rs-80" value="&lt;b&gt;&lt;font style=&quot;font-size: 18px;&quot;&gt;BI &amp;amp; Reporting&lt;/font&gt;&lt;/b&gt;" style="text;html=1;align=center;verticalAlign=middle;whiteSpace=wrap;rounded=0;" parent="1" vertex="1">
          <mxGeometry x="1148.13" y="270" width="141.25" height="30" as="geometry" />
        </mxCell>
        <mxCell id="F_8em20IMyetXkLZz1Rs-81" value="&lt;b&gt;&lt;font style=&quot;font-size: 18px;&quot;&gt;Ad-Hoc&lt;/font&gt;&lt;/b&gt;&lt;div&gt;&lt;b&gt;&lt;font style=&quot;font-size: 18px;&quot;&gt;SQL Queries&lt;/font&gt;&lt;/b&gt;&lt;/div&gt;" style="text;html=1;align=center;verticalAlign=middle;whiteSpace=wrap;rounded=0;" parent="1" vertex="1">
          <mxGeometry x="1148.13" y="450" width="141.25" height="30" as="geometry" />
        </mxCell>
        <mxCell id="F_8em20IMyetXkLZz1Rs-82" value="&lt;b&gt;&lt;font style=&quot;font-size: 18px;&quot;&gt;Machine Learning&lt;/font&gt;&lt;/b&gt;" style="text;html=1;align=center;verticalAlign=middle;whiteSpace=wrap;rounded=0;" parent="1" vertex="1">
          <mxGeometry x="1153.8700000000001" y="670" width="141.25" height="30" as="geometry" />
        </mxCell>
        <mxCell id="hCF-IlqdN9FFSrq_2OTy-1" value="" style="image;aspect=fixed;html=1;points=[];align=center;fontSize=12;image=img/lib/azure2/databases/SQL_Database.svg;" parent="1" vertex="1">
          <mxGeometry x="232" y="50" width="30" height="40" as="geometry" />
        </mxCell>
      </root>
    </mxGraphModel>
  </diagram>
</mxfile>
